# xmcd CD database file
#
# Track frame offsets:
#	150
#	32838
#	56317
#	78326
#	127698
#	168724
#	188023
#	209468
#	236590
#	255834
#	275781
#
# Disc length: 3976 seconds
#
# Revision: 0
# Processed by: cddbd v1.5.2PL0 Copyright (c) Steve Scherf et al.
# Submitted via: CDex 1.70beta2
#
DISCID=8e0f860b
DTITLE=Grunt - Europe After Storm
DYEAR=1999
DGENRE=Expérimental
TTITLE0=Project Eden
TTITLE1=N-Force
TTITLE2=Blood On Concrete
TTITLE3=Europe After Storm
TTITLE4=Peacekeepers
TTITLE5=Ethnic Cleaning
TTITLE6=Cleansweep
TTITLE7=Project Eden (Live)
TTITLE8=Hitler Klinton (Live)
TTITLE9=Ethnic Cleaning
TTITLE10=Revenge Tactics (Live)
EXTD=YEAR: 1999
EXTT0=
EXTT1=
EXTT2=
EXTT3=
EXTT4=
EXTT5=
EXTT6=
EXTT7=
EXTT8=
EXTT9=
EXTT10=
PLAYORDER=
